PathFileType	3	(X/Y/Z)	D:\VICON_DB\Goncalves\Pilot01\09-03-2026\bw_sq_140_01.trc
DataRate	CameraRate	NumFrames	NumMarkers	Units	OrigDataRate	OrigDataStartFrame	OrigNumFrames
200.0	200.0	9	34	mm	200.0	343	913	
Frame#	Time	LASI			RASI			LPSI			RPSI			LTHI			LTHAP			LTHAD			LKNE			LKNM			LTIB			LTIAP			LTIAD			LANK			LMED			LHEE			LTOE			LFMH			LSMH			LVMH			RTHI			RTHAP			RTHAD			RKNE			RKNM			RTIB			RTIAP			RTIAD			RANK			RMED			RHEE			RTOE			RFMH			RSMH			RVMH			
		X1	Y1	Z1	X2	Y2	Z2	X3	Y3	Z3	X4	Y4	Z4	X5	Y5	Z5	X6	Y6	Z6	X7	Y7	Z7	X8	Y8	Z8	X9	Y9	Z9	X10	Y10	Z10	X11	Y11	Z11	X12	Y12	Z12	X13	Y13	Z13	X14	Y14	Z14	X15	Y15	Z15	X16	Y16	Z16	X17	Y17	Z17	X18	Y18	Z18	X19	Y19	Z19	X20	Y20	Z20	X21	Y21	Z21	X22	Y22	Z22	X23	Y23	Z23	X24	Y24	Z24	X25	Y25	Z25	X26	Y26	Z26	X27	Y27	Z27	X28	Y28	Z28	X29	Y29	Z29	X30	Y30	Z30	X31	Y31	Z31	X32	Y32	Z32	X33	Y33	Z33	X34	Y34	Z34	
343	1.71	219.74983	504.22763	-1092.0963	217.57413	504.06934	-1357.5447				405.00378	576.91699	-1256.1008	235.86183	523.302	-1006.834	275.84048	525.93329	-1032.5485	235.99019	494.17322	-929.89392	136.10904	436.18808	-815.05096				185.41956	265.49973	-796.77576	79.373726	318.14465	-796.08936	147.72839	225.55803	-795.16125	259.43848	73.629181	-838.46069				272.28412	67.480286	-904.56146	184.5421	71.519241	-817.62183	124.17435	44.467358	-814.33417				172.85077	24.92164	-749.09113	224.69759	490.58679	-1508.3547	254.36273	532.57336	-1405.4275	197.36534	522.40863	-1436.3231	133.57542	436.00806	-1600.7817				156.332	274.92154	-1636.0645	71.716904	303.62408	-1626.6095	111.08752	228.04849	-1613.1108	258.41229	65.1222	-1573.8574				266.19543	63.836628	-1519.2563	175.51022	69.341537	-1607.8032	120.08893	50.285515	-1611.6541				168.67435	20.72266	-1667.2692
344	1.715	219.99976	502.99799	-1092.0219	217.72166	502.88766	-1357.3888				405.36606	575.37823	-1256.0531	236.13351	522.38403	-1007.0307	276.14804	524.89813	-1032.6005	236.17287	493.43988	-930.08411	136.06746	436.04623	-815.17859				185.35066	265.50021	-796.84619	79.248642	318.11734	-796.13177	147.67924	225.55455	-795.22064	259.44501	73.636139	-838.48596				272.26785	67.440826	-904.59796	184.52951	71.522003	-817.63605	124.16547	44.464302	-814.35449				172.84232	24.948034	-749.11554	224.81097	489.88269	-1507.92	254.29732	531.45715	-1405.4474	197.59627	521.49524	-1435.7668	133.4935	435.84695	-1600.365				156.25508	274.98627	-1635.8401	71.603081	303.63663	-1626.3457	111.03548	228.06528	-1612.9215	258.39532	65.139084	-1573.8473				266.19531	63.819057	-1519.2366	175.53595	69.332321	-1607.761	120.09495	50.297939	-1611.6501				168.67679	20.746878	-1667.2416
345	1.72	220.24379	501.78867	-1091.9438	217.86099	501.72824	-1357.2317				405.71808	573.86633	-1256.0026	236.40698	521.48444	-1007.2148	276.44937	523.8783	-1032.6467	236.36925	492.71899	-930.26288	136.05309	435.91177	-815.28864				185.30022	265.50125	-796.90204	79.146812	318.09814	-796.15399	147.64604	225.55418	-795.26721	259.45575	73.639809	-838.50665				272.25266	67.40139	-904.63086	184.52034	71.523651	-817.64471	124.15823	44.462067	-814.37103				172.83514	24.971294	-749.13605	224.9321	489.19168	-1507.4937	254.21574	530.35944	-1405.4855	197.82474	520.59802	-1435.2257	133.43207	435.69147	-1599.9623				156.19492	275.05295	-1635.6301	71.508232	303.65231	-1626.1017	110.99922	228.0849	-1612.746	258.38187	65.153099	-1573.8397				266.19836	63.800915	-1519.2195	175.56628	69.321793	-1607.7246	120.1033	50.31258	-1611.6505				168.67964	20.768112	-1667.219
346	1.725	220.48082	500.59955	-1091.8645	217.99255	500.59122	-1357.0743				406.05975	572.38013	-1255.949	236.68129	520.60345	-1007.3868	276.74234	522.87213	-1032.6874	236.57851	492.01035	-930.43042	136.0652	435.78433	-815.38129				185.2677	265.50238	-796.94348	79.068016	318.08707	-796.15643	147.62807	225.55646	-795.30127	259.46951	73.6399	-838.52332				272.23801	67.362541	-904.6601	184.51453	71.524315	-817.64807	124.15263	44.460655	-814.38385				172.82916	24.991272	-749.15265	225.06073	488.51395	-1507.0764	254.12646	529.27991	-1405.5311	198.05103	519.71826	-1434.7014	133.39011	435.54193	-1599.5743				156.15016	275.12109	-1635.4346	71.430809	303.6712	-1625.8778	110.97756	228.10725	-1612.5847	258.37149	65.164558	-1573.8347				266.20438	63.782475	-1519.2058	175.59976	69.310677	-1607.6946	120.11363	50.329308	-1611.655				168.68236	20.786793	-1667.2019
347	1.73	220.71013	499.43066	-1091.7847	218.11699	499.47678	-1356.9175				406.39172	570.9184	-1255.8918	236.95561	519.74146	-1007.5471	277.02539	521.8783	-1032.7229	236.79956	491.31396	-930.5874	136.10266	435.66385	-815.45691				185.25229	265.50336	-796.97083	79.01162	318.08389	-796.1402	147.62434	225.56113	-795.32312	259.48511	73.635757	-838.5376				272.22348	67.324944	-904.68604	184.51199	71.524216	-817.64655	124.14865	44.46006	-814.39319				172.82428	25.00798	-749.16553	225.19626	487.84952	-1506.6694	254.0367	528.21802	-1405.575	198.27533	518.8573	-1434.1947	133.36601	435.39853	-1599.202				156.11909	275.19034	-1635.2535	71.368973	303.69336	-1625.6738	110.96886	228.1322	-1612.4366	258.36356	65.173798	-1573.8326				266.21301	63.76405	-1519.1945	175.63472	69.299866	-1607.6714	120.12555	50.347954	-1611.663				168.68456	20.803474	-1667.1899
348	1.735	220.93137	498.28217	-1091.7061	218.23505	498.38531	-1356.7617				406.71518	569.47925	-1255.8303	237.22939	518.89874	-1007.6967	277.29745	520.89581	-1032.7535	237.03127	490.62997	-930.73438	136.16403	435.55005	-815.51654				185.25282	265.50385	-796.98517	78.976471	318.08798	-796.10699	147.63358	225.56783	-795.33398	259.50137	73.626778	-838.55072				272.20834	67.28933	-904.70905	184.51251	71.523697	-817.64117	124.14616	44.460293	-814.39905				172.8203	25.021616	-749.17505	225.33783	487.19843	-1506.2736	253.95071	527.17383	-1405.6108	198.49773	518.01599	-1433.7061	133.35751	435.26135	-1598.8462				156.09958	275.25983	-1635.0862	71.320518	303.71851	-1625.4885	110.97105	228.15947	-1612.3011	258.35736	65.181198	-1573.8326				266.22366	63.745983	-1519.186	175.66956	69.290314	-1607.6548	120.13871	50.368229	-1611.6743				168.686	20.818726	-1667.1827
349	1.74	221.14458	497.15454	-1091.6296	218.3477	497.31689	-1356.6071				407.03122	568.06152	-1255.7644	237.50224	518.07538	-1007.8362	277.55792	519.92383	-1032.7798	237.2724	489.95865	-930.87231	136.24747	435.44278	-815.56116				185.26773	265.50375	-796.98755	78.961021	318.09879	-796.0589	147.6543	225.5764	-795.33472	259.51721	73.61277	-838.56421				272.19193	67.256432	-904.72961	184.5157	71.523056	-817.63287	124.14497	44.461315	-814.40222				172.81699	25.032528	-749.18176	225.48436	486.56067	-1505.8893	253.87167	526.14709	-1405.634	198.71811	517.19489	-1433.2358	133.36186	435.1304	-1598.5073				156.08931	275.32874	-1634.9314	71.283058	303.74652	-1625.3207	110.98174	228.18867	-1612.1766	258.35236	65.187134	-1573.8346				266.23596	63.728622	-1519.1794	175.70288	69.282791	-1607.6447	120.15282	50.389782	-1611.6879				168.68658	20.833017	-1667.1799
350	1.745	221.35008	496.04846	-1091.556	218.45598	496.27176	-1356.4542				407.34036	566.66467	-1255.6945	237.77406	517.27173	-1007.9671	277.80676	518.96191	-1032.8021	237.5217	489.30042	-931.00183	136.35095	435.34177	-815.59241				185.29523	265.50296	-796.97937	78.96331	318.11533	-795.99847	147.68474	225.58658	-795.32672	259.53189	73.594017	-838.5788				272.17365	67.226883	-904.74829	184.52106	71.522606	-817.62262	124.14484	44.4631	-814.40295				172.81413	25.041159	-749.18616	225.63437	485.93634	-1505.5176	253.80194	525.13824	-1405.6416	198.93623	516.39441	-1432.7845	133.3761	435.00558	-1598.1857				156.08583	275.39618	-1634.7885	71.25396	303.77704	-1625.1682	110.99827	228.21942	-1612.0626	258.34802	65.191978	-1573.8379				266.24921	63.712261	-1519.1748	175.73367	69.277924	-1607.6404	120.16756	50.412182	-1611.703				168.68639	20.84664	-1667.1805
351	1.75	221.54858	494.96469	-1091.4861	218.56099	495.25015	-1356.3033				407.64334	565.2887	-1255.6213	238.04489	516.48798	-1008.0901	278.04453	518.01007	-1032.8204	237.77797	488.65573	-931.1239	136.47205	435.24686	-815.61182				185.3333	265.50146	-796.96228	78.981163	318.13675	-795.92853	147.7231	225.59824	-795.31152	259.5448	73.571182	-838.59546				272.15295	67.201248	-904.76575	184.528	71.522621	-817.61163	124.14553	44.465591	-814.40198				172.81145	25.048031	-749.1889	225.78625	485.32571	-1505.1589	253.74284	524.14832	-1405.6315	199.15158	515.61475	-1432.3518	133.39699	434.88693	-1597.8811				156.08675	275.46136	-1634.6554	71.230583	303.80963	-1625.0289	111.01794	228.25116	-1611.9569	258.34378	65.196053	-1573.8417				266.26285	63.697086	-1519.1711	175.76102	69.276184	-1607.6407	120.18251	50.434998	-1611.719				168.68564	20.859735	-1667.1832
